HIERARCHY
ROOT Scene_Root
{
	OFFSET 0 0 0
	CHANNELS 6 Xposition Yposition Zposition Zrotation Xrotation Yrotation
	JOINT Main__Hips_
	{
		OFFSET 0 0.333497 -1.08208
		CHANNELS 3 Zrotation Xrotation Yrotation
		JOINT LeftUpperLeg
		{
			OFFSET 0.1 -0.0114287 0.0486764
			CHANNELS 3 Zrotation Xrotation Yrotation
			JOINT LeftLowerLeg
			{
				OFFSET 0.013 0.0213623 0.420376
				CHANNELS 3 Zrotation Xrotation Yrotation
				JOINT LeftFoot
				{
					OFFSET -0.013 0.0293962 0.449911
					CHANNELS 3 Zrotation Xrotation Yrotation
					JOINT LeftToes
					{
						OFFSET 0 0.107002 0.0753362
						CHANNELS 3 Zrotation Xrotation Yrotation
						End Site
						{
							OFFSET 0 0 0
						}
					}
				}
			}
		}
		JOINT RightUpperLeg
		{
			OFFSET -0.1 -0.0114287 0.0486764
			CHANNELS 3 Zrotation Xrotation Yrotation
			JOINT RightLowerLeg
			{
				OFFSET -0.023 0.0213623 0.420376
				CHANNELS 3 Zrotation Xrotation Yrotation
				JOINT RightFoot
				{
					OFFSET 0.013 -0.00286508 0.450861
					CHANNELS 3 Zrotation Xrotation Yrotation
					JOINT RightToes
					{
						OFFSET 0 0.101339 0.082798
						CHANNELS 3 Zrotation Xrotation Yrotation
						End Site
						{
							OFFSET 0 0 0
						}
					}
				}
			}
		}
		JOINT LowerBack
		{
			OFFSET 0 0.0205716 -0.0876174
			CHANNELS 3 Zrotation Xrotation Yrotation
			JOINT Back
			{
				OFFSET 0 0.045839 -0.132283
				CHANNELS 3 Zrotation Xrotation Yrotation
				JOINT Chest
				{
					OFFSET 0 0.0818911 -0.160293
					CHANNELS 3 Zrotation Xrotation Yrotation
					JOINT Neck
					{
						OFFSET 0 0.107889 -0.182179
						CHANNELS 3 Zrotation Xrotation Yrotation
						JOINT Jaw
						{
							OFFSET 0 0.118895 0.0341752
							CHANNELS 3 Zrotation Xrotation Yrotation
							End Site
							{
								OFFSET 0 0 0
							}
						}
					}
					JOINT LeftUpperArm
					{
						OFFSET 0.195 0.0321844 -0.114408
						CHANNELS 3 Zrotation Xrotation Yrotation
						JOINT LeftLowerArm
						{
							OFFSET 0.204101 0.206807 0.177267
							CHANNELS 3 Zrotation Xrotation Yrotation
							JOINT LeftHand
							{
								OFFSET 0.0234663 0.217604 0.0533638
								CHANNELS 3 Zrotation Xrotation Yrotation
								JOINT LTumb1
								{
									OFFSET 0.0507314 0.0496635 0.0237774
									CHANNELS 3 Zrotation Xrotation Yrotation
									JOINT LTumb2
									{
										OFFSET 0.0272682 0.02811 0.00651801
										CHANNELS 3 Zrotation Xrotation Yrotation
										End Site
										{
											OFFSET 0 0 0
										}
									}
								}
								JOINT LForeFinger1
								{
									OFFSET 0.0346138 0.11121 0.0302093
									CHANNELS 3 Zrotation Xrotation Yrotation
									JOINT LForeFinger2
									{
										OFFSET 0.00712675 0.0296934 0.00280035
										CHANNELS 3 Zrotation Xrotation Yrotation
										JOINT LForeFinger3
										{
											OFFSET 0.00514743 0.0239427 0.00288153
											CHANNELS 3 Zrotation Xrotation Yrotation
											End Site
											{
												OFFSET 0 0 0
											}
										}
									}
								}
								JOINT LMiddleFinger1
								{
									OFFSET 0.00443164 0.116544 0.0293325
									CHANNELS 3 Zrotation Xrotation Yrotation
									JOINT LMiddleFinger2
									{
										OFFSET 0.00547066 0.0321407 0.00380921
										CHANNELS 3 Zrotation Xrotation Yrotation
										JOINT LMiddleFinger3
										{
											OFFSET 0.0032016 0.0277876 0.00574243
											CHANNELS 3 Zrotation Xrotation Yrotation
											End Site
											{
												OFFSET 0 0 0
											}
										}
									}
								}
								JOINT LRingFinger1
								{
									OFFSET -0.0247682 0.117359 0.0247467
									CHANNELS 3 Zrotation Xrotation Yrotation
									JOINT LRingFinger2
									{
										OFFSET -0.00228947 0.0286206 0.00195527
										CHANNELS 3 Zrotation Xrotation Yrotation
										JOINT LRingFinger3
										{
											OFFSET -0.00228044 0.0248153 0.00352204
											CHANNELS 3 Zrotation Xrotation Yrotation
											End Site
											{
												OFFSET 0 0 0
											}
										}
									}
								}
								JOINT LLittleFinger1
								{
									OFFSET -0.0547365 0.106481 0.0205122
									CHANNELS 3 Zrotation Xrotation Yrotation
									JOINT LLittleFinger2
									{
										OFFSET -0.00425085 0.0164392 -0.00438845
										CHANNELS 3 Zrotation Xrotation Yrotation
										JOINT LLittleFinger3
										{
											OFFSET -0.00726715 0.0225947 9.34601e-005
											CHANNELS 3 Zrotation Xrotation Yrotation
											End Site
											{
												OFFSET 0 0 0
											}
										}
									}
								}
							}
						}
					}
					JOINT RightUpperArm
					{
						OFFSET -0.195 0.0321844 -0.114408
						CHANNELS 3 Zrotation Xrotation Yrotation
						JOINT RightLowerArm
						{
							OFFSET -0.263042 -0.059893 0.207537
							CHANNELS 3 Zrotation Xrotation Yrotation
							JOINT RightHand
							{
								OFFSET -0.156718 0.0193797 0.160667
								CHANNELS 3 Zrotation Xrotation Yrotation
								JOINT RTumb1
								{
									OFFSET -0.0747896 0.00344858 -0.00048089
									CHANNELS 3 Zrotation Xrotation Yrotation
									JOINT RTumb2
									{
										OFFSET -0.0388624 0.00811681 0.000195503
										CHANNELS 3 Zrotation Xrotation Yrotation
										End Site
										{
											OFFSET 0 0 0
										}
									}
								}
								JOINT RForeFinger1
								{
									OFFSET -0.106645 0.0137769 0.0539945
									CHANNELS 3 Zrotation Xrotation Yrotation
									JOINT RForeFinger2
									{
										OFFSET -0.0251662 0.00815815 0.0155061
										CHANNELS 3 Zrotation Xrotation Yrotation
										JOINT RForeFinger3
										{
											OFFSET -0.0201192 0.0058828 0.0129869
											CHANNELS 3 Zrotation Xrotation Yrotation
											End Site
											{
												OFFSET 0 0 0
											}
										}
									}
								}
								JOINT RMiddleFinger1
								{
									OFFSET -0.089753 0.010414 0.0793635
									CHANNELS 3 Zrotation Xrotation Yrotation
									JOINT RMiddleFinger2
									{
										OFFSET -0.0260301 0.00767228 0.0184671
										CHANNELS 3 Zrotation Xrotation Yrotation
										JOINT RMiddleFinger3
										{
											OFFSET -0.0223736 0.00406167 0.0172713
											CHANNELS 3 Zrotation Xrotation Yrotation
											End Site
											{
												OFFSET 0 0 0
											}
										}
									}
								}
								JOINT RRingFinger1
								{
									OFFSET -0.0692194 0.00925985 0.100607
									CHANNELS 3 Zrotation Xrotation Yrotation
									JOINT RRingFinger2
									{
										OFFSET -0.0179 0.00677571 0.0214914
										CHANNELS 3 Zrotation Xrotation Yrotation
										JOINT RRingFinger3
										{
											OFFSET -0.015983 0.00412089 0.0189992
											CHANNELS 3 Zrotation Xrotation Yrotation
											End Site
											{
												OFFSET 0 0 0
											}
										}
									}
								}
								JOINT RLittleFinger1
								{
									OFFSET -0.0406554 0.00393838 0.114397
									CHANNELS 3 Zrotation Xrotation Yrotation
									JOINT RLittleFinger2
									{
										OFFSET -0.00633878 0.00844061 0.0140054
										CHANNELS 3 Zrotation Xrotation Yrotation
										JOINT RLittleFinger3
										{
											OFFSET -0.00997818 0.0056358 0.020785
											CHANNELS 3 Zrotation Xrotation Yrotation
											End Site
											{
												OFFSET 0 0 0
											}
										}
									}
								}
							}
						}
					}
				}
			}
		}
	}
}
MOTION
Frames: 5
Frame Time: 0.050000
0 0 0 0 0 0 -180 83.2132 -180 -76.3163 -85.3342 -46.5854 -180 26.7961 -180 0 -10.8985 0 0 -46.7962 0 82.5316 -84.7535 47.8405 180 30.8985 -180 0 -10.8985 0 0 -42.692 0 0 -3.89923 0 0 -28.9494 0 0 9.10076 0 107.925 -83.1932 115.681 0 -1.67028e-006 0 6.91044 68.0586 55.0347 -91.9825 -11.7228 35.3408 -7.39556 0.270249 3.54752 19.3684 -4.64226 -1.25285 19.3684 -4.64226 -1.25285 -44.5917 -68.8473 -6.7738 -167.655 -69.8594 -150.681 -8.21342 -34.1203 -1.27102 -38.942 -70.2903 -16.2796 -164.619 -58.8888 -146.217 -4.38915 -19.5192 -0.0543266 -33.6687 -72.0437 -26.0886 -164.619 -58.8888 -146.217 -2.15996 -9.76005 0.163365 3.30276 -64.1205 -16.2133 -134.733 -75.8345 -118.948 -9.79416 -34.2694 -21.809 -48.644 -1.46421 -13.1735 6.88535 1.00551 -83.6776 5.13513e-007 1.01567e-007 1.94253e-006 -3.78519 2.14656 19.5967 -5.89765 2.70539 29.4455 -88.0647 -19.1233 -50.5732 -96.9122 -42.4781 -45.9922 -35.6101 -29.5482 -10.7704 -88.5802 -23.98 -49.6751 -83.0765 -43.3645 -41.2138 -30.977 -26.6682 -8.4714 -89.9585 -43.4641 -46.0613 -89.9585 -43.4641 -46.0613 -40.5128 -32.2498 -13.4046 -10.896 -9.75181 -16.3377 25.076 -80.9693 68.021 -63.1905 -40.6167 -27.4862 
0 0 0 0 0 0 -180 83.2132 -180 -76.3163 -85.3342 -46.5854 -180 26.7961 -180 0 -10.8985 0 0 -46.7962 0 82.5316 -84.7535 47.8405 180 30.8985 -180 0 -10.8985 0 0 -42.692 0 0 -4.39923 0 0 -29.1161 0 0 9.10076 0 85.7129 -70.9969 109.17 0 -1.67028e-006 0 6.62506 67.0656 55.3434 -92.4709 -11.736 35.0963 -7.39556 0.270249 3.54752 19.3684 -4.64226 -1.25285 19.3684 -4.64226 -1.25285 -44.5917 -68.8473 -6.7738 -167.655 -69.8594 -150.681 -8.21342 -34.1203 -1.27102 -38.942 -70.2903 -16.2796 -164.619 -58.8888 -146.217 -4.38915 -19.5192 -0.0543266 -33.6687 -72.0437 -26.0886 -164.619 -58.8888 -146.217 -2.15996 -9.76005 0.163365 3.30276 -64.1205 -16.2133 -134.733 -75.8345 -118.948 -9.79416 -34.2694 -21.809 -48.6292 -0.803359 -12.4228 6.95609 0.638797 -84.0111 5.13513e-007 1.01567e-007 1.94253e-006 -3.78519 2.14656 19.5967 -5.89765 2.70539 29.4455 -88.0647 -19.1233 -50.5732 -96.9122 -42.4781 -45.9922 -35.6101 -29.5482 -10.7704 -88.5802 -23.98 -49.6751 -83.0765 -43.3645 -41.2138 -30.977 -26.6682 -8.4714 -89.9585 -43.4641 -46.0613 -89.9585 -43.4641 -46.0613 -40.5128 -32.2498 -13.4046 -10.896 -9.75181 -16.3377 25.076 -80.9693 68.021 -63.1905 -40.6167 -27.4862 
0 0 0 0 0 0 -180 83.2132 -180 -76.3163 -85.3342 -46.5854 -180 26.7961 -180 0 -10.8985 0 0 -46.7962 0 82.5316 -84.7535 47.8405 180 30.8985 -180 0 -10.8985 0 0 -42.692 0 0 -4.89922 0 0 -29.2827 0 0 9.10076 0 107.925 -83.1932 115.681 0 -1.67028e-006 0 6.36406 66.072 55.6279 -92.9595 -11.7471 34.8516 -7.39556 0.270249 3.54752 19.3684 -4.64226 -1.25285 19.3684 -4.64226 -1.25285 -44.5917 -68.8473 -6.7738 -167.655 -69.8594 -150.681 -8.21342 -34.1203 -1.27102 -38.942 -70.2903 -16.2796 -164.619 -58.8888 -146.217 -4.38915 -19.5192 -0.0543266 -33.6687 -72.0437 -26.0886 -164.619 -58.8888 -146.217 -2.15996 -9.76005 0.163365 3.30276 -64.1205 -16.2133 -134.733 -75.8345 -118.948 -9.79416 -34.2694 -21.809 -48.623 -0.142376 -11.6724 7.02469 0.271682 -84.3441 5.13513e-007 1.01567e-007 1.94253e-006 -3.78519 2.14656 19.5967 -5.89765 2.70539 29.4455 -88.0647 -19.1233 -50.5732 -96.9122 -42.4781 -45.9922 -35.6101 -29.5482 -10.7704 -88.5802 -23.98 -49.6751 -83.0765 -43.3645 -41.2138 -30.977 -26.6682 -8.4714 -89.9585 -43.4641 -46.0613 -89.9585 -43.4641 -46.0613 -40.5128 -32.2498 -13.4046 -10.896 -9.75181 -16.3377 25.076 -80.9693 68.021 -63.1905 -40.6167 -27.4862 
0 0 0 0 0 0 -180 83.2132 -180 -76.3163 -85.3342 -46.5854 -180 26.7961 -180 0 -10.8985 0 0 -46.7962 0 82.5316 -84.7535 47.8405 180 30.8985 -180 0 -10.8985 0 0 -42.692 0 0 -5.39922 0 0 -29.4494 0 0 9.10076 0 -107.925 -83.1932 -115.681 0 -1.67028e-006 0 6.12456 65.0779 55.8909 -93.4481 -11.7562 34.6069 -7.39556 0.270249 3.54752 19.3684 -4.64226 -1.25285 19.3684 -4.64226 -1.25285 -44.5917 -68.8473 -6.7738 -167.655 -69.8594 -150.681 -8.21342 -34.1203 -1.27102 -38.942 -70.2903 -16.2796 -164.619 -58.8888 -146.217 -4.38915 -19.5192 -0.0543266 -33.6687 -72.0437 -26.0886 -164.619 -58.8888 -146.217 -2.15996 -9.76005 0.163365 3.30276 -64.1205 -16.2133 -134.733 -75.8345 -118.948 -9.79416 -34.2694 -21.809 -48.6254 0.518631 -10.922 7.09116 -0.0958276 -84.6766 5.13513e-007 1.01567e-007 1.94253e-006 -3.78519 2.14656 19.5967 -5.89765 2.70539 29.4455 -88.0647 -19.1233 -50.5732 -96.9122 -42.4781 -45.9922 -35.6101 -29.5482 -10.7704 -88.5802 -23.98 -49.6751 -83.0765 -43.3645 -41.2138 -30.977 -26.6682 -8.4714 -89.9585 -43.4641 -46.0613 -89.9585 -43.4641 -46.0613 -40.5128 -32.2498 -13.4046 -10.896 -9.75181 -16.3377 25.076 -80.9693 68.021 -63.1905 -40.6167 -27.4862 
0 0 0 0 0 0 -180 83.2132 -180 -76.3163 -85.3342 -46.5854 -180 26.7961 -180 0 -10.8985 0 0 -46.7962 0 82.5316 -84.7535 47.8405 180 30.8985 -180 0 -10.8985 0 0 -42.692 0 0 -5.89921 0 0 -29.6161 0 0 9.10076 0 -85.7129 -70.9969 -109.17 0 -1.67028e-006 0 5.90407 64.0834 56.135 -93.9367 -11.7633 34.362 -7.39556 0.270249 3.54752 19.3684 -4.64226 -1.25285 19.3684 -4.64226 -1.25285 -44.5917 -68.8473 -6.7738 -167.655 -69.8594 -150.681 -8.21342 -34.1203 -1.27102 -38.942 -70.2903 -16.2796 -164.619 -58.8888 -146.217 -4.38915 -19.5192 -0.0543266 -33.6687 -72.0437 -26.0886 -164.619 -58.8888 -146.217 -2.15996 -9.76005 0.163365 3.30276 -64.1205 -16.2133 -134.733 -75.8345 -118.948 -9.79416 -34.2694 -21.809 -48.6365 1.17955 -10.1714 7.15549 -0.463718 -85.0088 5.13513e-007 1.01567e-007 1.94253e-006 -3.78519 2.14656 19.5967 -5.89765 2.70539 29.4455 -88.0647 -19.1233 -50.5732 -96.9122 -42.4781 -45.9922 -35.6101 -29.5482 -10.7704 -88.5802 -23.98 -49.6751 -83.0765 -43.3645 -41.2138 -30.977 -26.6682 -8.4714 -89.9585 -43.4641 -46.0613 -89.9585 -43.4641 -46.0613 -40.5128 -32.2498 -13.4046 -10.896 -9.75181 -16.3377 25.076 -80.9693 68.021 -63.1905 -40.6167 -27.4862 
